<svg xmlns="http://www.w3.org/2000/svg" viewBox="0 0 128 128" shape-rendering="crispEdges">
  <rect width="128" height="128" fill="none"/>
  <rect x="55" y="8" width="18" height="8" fill="#8ee0c7"/>
  <rect x="62" y="16" width="4" height="16" fill="#5ab7ad"/>
  <rect x="43" y="24" width="42" height="8" fill="#5ab7ad"/>
  <rect x="35" y="32" width="58" height="8" fill="#8ee0c7"/>
  <rect x="26" y="40" width="76" height="12" fill="#8ee0c7"/>
  <rect x="22" y="52" width="84" height="44" fill="#5ab7ad"/>
  <rect x="30" y="48" width="68" height="44" fill="#8ee0c7"/>
  <rect x="38" y="58" width="52" height="26" fill="#edf9e3"/>
  <rect x="46" y="67" width="7" height="9" fill="#223552"/>
  <rect x="75" y="67" width="7" height="9" fill="#223552"/>
  <rect x="59" y="78" width="10" height="4" fill="#223552"/>
  <rect x="38" y="98" width="52" height="22" fill="#223552"/>
  <rect x="47" y="105" width="10" height="4" fill="#8ee0c7"/>
  <rect x="61" y="105" width="10" height="4" fill="#8ee0c7"/>
  <rect x="75" y="105" width="10" height="4" fill="#8ee0c7"/>
  <rect x="28" y="102" width="8" height="12" fill="#223552"/>
  <rect x="92" y="102" width="8" height="12" fill="#223552"/>
</svg>
