<svg xmlns="http://www.w3.org/2000/svg" viewBox="0 0 224 136">
  <rect width="224" height="136" rx="14" fill="#10131a"/>
  <g shape-rendering="crispEdges">
    <rect x="72" y="16" width="8" height="8" fill="#eaf6fb"/>
    <rect x="112" y="16" width="8" height="8" fill="#eaf6fb"/>
    <rect x="88" y="24" width="40" height="8" fill="#eaf6fb"/>
    <rect x="104" y="32" width="16" height="8" fill="#eaf6fb"/>
    <rect x="104" y="40" width="16" height="8" fill="#eaf6fb"/>
    <rect x="48" y="48" width="80" height="8" fill="#6fb3d9"/>
    <rect x="32" y="56" width="24" height="8" fill="#7fb2e0"/>
    <rect x="56" y="56" width="104" height="8" fill="#6fb3d9"/>
    <rect x="24" y="64" width="32" height="8" fill="#6fb3d9"/>
    <rect x="56" y="64" width="16" height="8" fill="#1c2b33"/>
    <rect x="72" y="64" width="88" height="8" fill="#6fb3d9"/>
    <rect x="160" y="64" width="16" height="8" fill="#4a86ad"/>
    <rect x="24" y="72" width="8" height="8" fill="#6fb3d9"/>
    <rect x="32" y="72" width="8" height="8" fill="#f6a6c0"/>
    <rect x="40" y="72" width="128" height="8" fill="#6fb3d9"/>
    <rect x="168" y="72" width="24" height="8" fill="#4a86ad"/>
    <rect x="24" y="80" width="40" height="8" fill="#eaf6fb"/>
    <rect x="64" y="80" width="88" height="8" fill="#6fb3d9"/>
    <rect x="152" y="80" width="24" height="8" fill="#4a86ad"/>
    <rect x="24" y="88" width="64" height="8" fill="#eaf6fb"/>
    <rect x="88" y="88" width="72" height="8" fill="#6fb3d9"/>
    <rect x="32" y="96" width="72" height="8" fill="#eaf6fb"/>
    <rect x="104" y="96" width="40" height="8" fill="#6fb3d9"/>
    <rect x="40" y="104" width="72" height="8" fill="#eaf6fb"/>
    <rect x="112" y="104" width="16" height="8" fill="#6fb3d9"/>
    <rect x="56" y="112" width="56" height="8" fill="#eaf6fb"/>
  </g>
</svg>

